<?xml version="1.0"?>
<svg version="1.1" xmlns="http://www.w3.org/2000/svg" width="160" height="60" style=""><path fill="#075237" d="M40.77,30.24q0,2.37-2.31,5.58q-1.8,2.52-4.785,4.05t-5.505,1.53q-0.93,0-1.56-0.21q-1.26,1.62-4.05,5.07q1.05,1.5,3.795,2.82t4.725,1.32t2.94-0.54q1.32-0.69,1.32-1.98q0-0.33-0.06-0.63t0.195-0.3t0.45,0.435t0.195,0.765q0,1.05-1.11,1.98q-1.41,1.14-3.84,1.14t-5.04-1.14t-4.29-3.09q-2.4,2.4-4.56,2.4q-0.66,0-1.14-0.24q-1.05-0.6-1.05-2.28t1.395-4.14t2.205-2.61q0.54,0,1.23,1.23l1.89,3.66q1.59-2.1,3.33-4.59q-2.46-1.11-2.46-3.21q0-1.74,1.41-2.82q0.78-0.57,1.665-0.57t1.335,0.93q0.09,0.18,0.015,0.225t-0.105,0.015q-0.6-0.6-1.29-0.6l-0.06,0q-0.87,0-1.515,0.93t-0.645,1.71l0,0.18q0,1.56,2.16,2.67q0.36-0.51,1.155-1.695t1.245-1.845q5.97-8.76,9.93-8.76q2.79,0,2.79,2.61z M38.1,28.14q-1.5,0-3.72,2.52q-1.53,1.77-3.585,4.755t-3.705,5.115q0.39,0.09,0.87,0.09q2.1,0,4.8-1.44t4.26-3.63q2.73-3.81,2.73-5.79q0-1.2-1.05-1.53q-0.27-0.09-0.6-0.09z M21.06,46.05q-0.72-0.99-1.5-2.535t-1.035-1.845t-0.345-0.3l-0.12,0q-0.54,0.09-1.17,1.92t-0.63,3.585t1.08,1.755q0.78,0,1.875-0.81t1.845-1.77z M43.4301,36.045q0.405,0.285,0.405,0.675t-0.375,0.675t-0.825,0.285t-0.825-0.33t-0.375-0.75q0-0.84,1.14-0.84q0.45,0,0.855,0.285z M37.1451,48.33q-1.53,0-1.53-1.98q0-1.62,1.77-4.485t2.85-2.895q0.3,0,0.675,0.24t0.375,0.48q-0.15,0.21-0.36,0.465t-0.45,0.555t-0.66,0.855t-0.81,1.065q-2.25,2.91-2.25,4.005t0.75,1.095q0.63,0,1.71-0.69q2.52-1.56,3.99-3.42q0.54-0.69,0.735-0.69t0.195,0.24t-0.69,0.96t-1.095,1.14t-0.555,0.555t-0.555,0.51t-0.615,0.525t-0.6,0.45t-0.69,0.435t-0.69,0.315q-0.63,0.27-1.5,0.27z M46.3302,47.4q0.99,0,2.55-1.05t3.03-2.85q0.36-0.48,0.57-0.48t0.21,0.18t-1.23,1.56q-3,3.3-5.01,3.3q-0.99,0-1.68-0.465t-0.69-1.44t0.51-2.265q0.87-2.04,2.79-5.13q3.51-5.7,4.98-5.7q0.3,0,0.615,0.225t0.345,0.495q-0.69,0.93-2.655,3.57t-2.715,3.795t-1.125,1.725t-0.555,0.885t-0.42,0.825q-0.51,1.02-0.51,1.92t0.99,0.9z M51.1053,51.48q1.44,1.8,2.49,1.8q1.71,0,3.69-2.73q1.44-2.01,2.82-5.07l1.14-2.76l-4.41,3.45q-2.04,1.59-3.27,1.59q-0.66,0-1.05-0.45t-0.39-1.02q0-1.29,2.22-4.245t3.24-2.955t1.02,0.69q0,0.27-2.655,3.105t-2.655,3.825q0,0.39,0.51,0.39q0.96,0,3.855-2.25t4.365-3.72q0.33-0.39,0.93-1.17q0.57-0.66,1.26-0.66t0.69,0.66q0,0.12-1.35,2.13t-1.41,2.13q-0.93,1.8-2.85,5.25q-2.91,4.68-5.82,4.68q-0.96,0-1.68-0.825t-0.69-1.845z M96.2055,35.16q-1.11,0.45-1.905,0.45t-0.795-0.33q0-0.21,0.885-0.24t1.275-0.21q1.14-0.6,1.14-1.77q0-0.6-0.33-1.26q-0.96-1.71-4.65-1.71q-2.13,0-4.26,0.645t-3.57,1.98t-1.44,2.475q0,1.74,3.45,2.55l3.54,0.66q2.13,0.39,3.18,1.08q1.38,0.84,1.38,2.4q0,0.63-0.21,1.35q-0.96,3.24-4.95,4.95q-3.33,1.47-7.86,1.47q-1.29,0-2.25-0.12q0.96,0.54,2.52,0.93q0.12,0.03,0.12,0.12q0,0.27-0.63,0.27q-1.23,0-3.06-1.47q-2.49-0.39-3.72-1.38q-0.78-0.63-1.44-1.86t-0.66-2.22t0.39-1.65q0.9-1.59,2.28-1.59q1.05,0,1.23,1.77q0.42,3.42,0.57,3.9q0.45,1.47,1.53,2.49q1.26,0.27,2.73,0.27q3.24,0,6.36-1.29t4.5-3.66q0.57-0.93,0.57-1.65q0-1.41-2.49-2.19l-5.28-1.2q-1.62-0.39-2.595-1.29t-0.975-2.07q0-1.8,2.25-3.6q1.71-1.38,4.185-2.145t4.86-0.765t3.945,0.69q2.01,0.93,2.01,2.715t-1.83,2.505z M76.8855,48.54q-1.74-1.92-2.22-5.25q-0.27-1.89-0.51-1.89t-0.45,0.135t-0.42,0.585t-0.21,1.17q0,2.31,1.62,3.96q0.81,0.84,2.19,1.29z M104.6406,48.18q-0.15,0.03-0.645,0.03t-0.99-0.39t-0.495-1.005t0.225-1.365t0.315-1.14q-3.45,4.02-5.4,4.02q-1.23,0-1.35-1.53l0-0.21q0-1.29,1.56-3.48q-0.87,0.78-1.77,1.8q-0.12,0.12-0.3,0.12q-0.12,0-0.12-0.15t0.27-0.51l4.14-4.86q0.78-0.9,1.59-0.9t0.81,0.54q0,0.21-0.18,0.39q-1.2,1.11-3.015,3.69t-1.815,3.81q0,0.54,0.36,0.54q1.26,0,3.66-2.49q0.84-0.84,3.12-3.705t3-2.865q1.08,0,1.08,0.84q0,0.3-1.26,1.74q-1.71,2.07-2.61,3.375t-0.9,2.115t0.45,0.81q0.21,0,0.48-0.12q2.07-0.9,4.95-4.2q0.18-0.21,0.36-0.21t0.18,0.195t-0.21,0.435q-1.29,1.5-3.03,3.015t-2.46,1.665z M117.6807,36.045q0.405,0.285,0.405,0.675t-0.375,0.675t-0.825,0.285t-0.825-0.33t-0.375-0.75q0-0.84,1.14-0.84q0.45,0,0.855,0.285z M111.3957,48.33q-1.53,0-1.53-1.98q0-1.62,1.77-4.485t2.85-2.895q0.3,0,0.675,0.24t0.375,0.48q-0.15,0.21-0.36,0.465t-0.45,0.555t-0.66,0.855t-0.81,1.065q-2.25,2.91-2.25,4.005t0.75,1.095q0.63,0,1.71-0.69q2.52-1.56,3.99-3.42q0.54-0.69,0.735-0.69t0.195,0.24t-0.69,0.96t-1.095,1.14t-0.555,0.555t-0.555,0.51t-0.615,0.525t-0.6,0.45t-0.69,0.435t-0.69,0.315q-0.63,0.27-1.5,0.27z M126.2508,38.34l4.32-0.06q0.09,0.06,0.09,0.09q0,0.27-3.735,0.75t-4.035,0.57q-0.57,0.51-2.1,3.045t-1.53,3.705q0,1.11,1.53,1.11q0.72,0,1.89-0.45t1.8-0.84q1.68-1.05,3.6-3.09q0.42-0.42,0.57-0.42q0.09,0,0.09,0.18t-0.45,0.72q-1.56,1.92-3.51,3.09q-2.34,1.44-4.47,1.44q-0.93,0-1.515-0.405t-0.585-1.635t1.08-3.375t1.65-3.195q-0.42,0.09-0.72,0.09q-0.87,0-0.87-0.69q0-0.51,0.72-0.72q0.09,0,0.27-0.03l1.74,0q0.54-0.69,1.23-1.59q0.84-1.08,1.14-1.08t0.75,0.24t0.45,0.57t-1.44,1.95q0.78,0.03,2.04,0.03z M130.1859,48.39q-0.33,0-0.6-0.09q-1.92-0.54-1.92-2.16q0-2.1,2.64-4.86t4.74-2.76q0.69,0,1.125,0.375t0.435,0.915q0,1.68-2.535,3.21t-4.125,1.53q-0.24,0-0.42-0.06q-0.45,0.81-0.45,1.71q0,1.56,1.485,1.56t3.855-2.01q1.83-1.47,3.12-3.12q0.27-0.36,0.465-0.36t0.195,0.18t-0.24,0.51q-1.62,2.13-3.9,3.78t-3.87,1.65z M135.8559,39.75q0-0.36-0.765-0.36t-2.175,1.17q-1.89,1.56-2.94,3.27q0.18,0.06,0.39,0.06q1.14,0,3.045-1.215t2.385-2.655q0.06-0.15,0.06-0.27z M143.211,47.55q-0.87,0.51-2.145,0.51t-1.95-0.84t-1.155-2.67q-0.54,0.54-0.75,0.54q-0.15,0-0.15-0.21t0.15-0.36q0.99-1.23,3.36-3.54l3.78-3.54q1.62-1.53,1.92-1.53q0.96,0,0.96,0.72q0,0.36-0.285,0.705t-0.42,0.54t-0.285,0.375q-0.54,0.93-1.095,3.84t-0.855,4.05q2.49-0.03,5.13-3.24q0.3-0.3,0.45-0.3t0.15,0.195t-0.27,0.525q-1.74,2.04-3.24,2.85q-0.9,0.45-2.34,0.75z M139.161,44.22q0,1.02,0.675,1.665t1.515,0.645t1.29-0.33q0.6-0.33,1.185-2.76t0.705-4.29l0.12-1.02q-1.65,1.23-3.525,3.18t-1.935,2.58q-0.03,0.18-0.03,0.33z"/><path fill="#" d=""/></svg>
